<svg width="24" height="24" viewBox="0 0 24 24" fill="none" xmlns="http://www.w3.org/2000/svg">
<path d="M12.6787 23.0713C12.9351 23.0713 13.1426 23.2797 13.1426 23.5361C13.1424 23.7923 12.935 24 12.6787 24C12.4224 24 12.2141 23.7924 12.2139 23.5361C12.2139 23.2797 12.4223 23.0713 12.6787 23.0713ZM10.2139 22.1426C10.5293 22.1426 10.7859 22.3985 10.7861 22.7139V23.3574C10.786 23.6729 10.5294 23.9287 10.2139 23.9287H9.57129C9.25584 23.9286 9.00013 23.6729 9 23.3574V22.7139C9.00025 22.3985 9.25592 22.1427 9.57129 22.1426H10.2139ZM16.6426 20.2139C16.958 20.2139 17.2136 20.4698 17.2139 20.7852V22.5C17.2138 22.8156 16.9581 23.0713 16.6426 23.0713H14.9287C14.6131 23.0713 14.3575 22.8156 14.3574 22.5V20.7852C14.3577 20.4698 14.6133 20.2139 14.9287 20.2139H16.6426ZM10.1426 17.5C10.4581 17.5 10.7147 17.7558 10.7148 18.0713V19.3574C10.7148 19.6729 10.4581 19.9287 10.1426 19.9287H8.85742C8.82665 19.9287 8.79648 19.9262 8.76707 19.9215C8.5403 19.885 8.29916 19.7962 8.0833 19.8747L7.37109 20.1338L6.59873 20.4142C6.48185 20.4566 6.42871 20.5905 6.42871 20.7148V21.5713C6.42871 21.8867 6.17281 22.1423 5.85742 22.1426H5C4.68441 22.1426 4.42871 21.8869 4.42871 21.5713V20.7148C4.42871 20.3993 4.68441 20.1426 5 20.1426H5.85742C5.87647 20.1426 5.89528 20.1436 5.91382 20.1455C6.10524 20.165 6.30613 20.2172 6.48692 20.1513L7.27246 19.8652L8.17667 19.5361C8.24851 19.51 8.28615 19.4339 8.28613 19.3574V18.0713C8.28628 17.7558 8.54192 17.5 8.85742 17.5H10.1426ZM15.2861 17.1426C15.6015 17.1428 15.8574 17.3994 15.8574 17.7148V18.5713C15.8574 18.6701 15.9055 18.7714 16.0006 18.7983L16.8604 19.041L17.7204 19.2836C17.9149 19.3384 18.1214 19.2626 18.3198 19.2243C18.3551 19.2174 18.3915 19.2139 18.4287 19.2139H19.2861C19.6015 19.214 19.8572 19.4698 19.8574 19.7852V20.6426C19.8574 20.9581 19.6016 21.2137 19.2861 21.2139H18.4287C18.1131 21.2139 17.8574 20.9582 17.8574 20.6426V19.7852C17.8575 19.6961 17.812 19.6063 17.7263 19.5821L15.9588 19.0833C15.7725 19.0307 15.5752 19.0991 15.3848 19.1337C15.3528 19.1395 15.3199 19.1426 15.2861 19.1426H14.4287C14.269 19.1426 14.0881 19.1876 14.0178 19.331L13.9043 19.5625L13.6241 20.1333C13.5378 20.3093 13.5713 20.5188 13.5713 20.7148V21.3574C13.5712 21.6729 13.3155 21.9287 13 21.9287H12.3574C12.0419 21.9287 11.7862 21.673 11.7861 21.3574V20.7148C11.7861 20.3993 12.0418 20.1426 12.3574 20.1426H13C13.1527 20.1426 13.3234 20.0984 13.3908 19.9613L13.6484 19.4375L13.805 19.1175C13.886 18.9517 13.8574 18.7558 13.8574 18.5713V17.7148C13.8574 17.3993 14.1131 17.1426 14.4287 17.1426H15.2861ZM3.14258 18.5C3.45817 18.5 3.71484 18.7557 3.71484 19.0713V19.3574C3.71462 19.6728 3.45803 19.9287 3.14258 19.9287H2.85742C2.54197 19.9287 2.28636 19.6728 2.28613 19.3574V19.0713C2.28613 18.7557 2.54183 18.5 2.85742 18.5H3.14258ZM19.8574 14.7861C20.173 14.7862 20.4287 15.0419 20.4287 15.3574V16C20.4287 16.16 20.4086 16.3273 20.4723 16.4741L20.993 17.6743C21.0508 17.8075 21.2122 17.8574 21.3574 17.8574H21.5713C21.8869 17.8574 22.1426 18.1131 22.1426 18.4287V18.6426C22.1426 18.9582 21.8869 19.2148 21.5713 19.2148H21.3574C21.0418 19.2148 20.7861 18.9582 20.7861 18.6426V18.4287C20.7861 18.4218 20.7863 18.4149 20.7865 18.4081C20.7932 18.2187 20.83 18.0179 20.7549 17.8439L20.4766 17.1992L20.2933 16.7771C20.2255 16.6211 20.0276 16.5713 19.8574 16.5713H19.2148C18.8993 16.5713 18.6426 16.3156 18.6426 16V15.3574C18.6426 15.0418 18.8993 14.7861 19.2148 14.7861H19.8574ZM17.8926 17.7139C18.149 17.7139 18.3574 17.9223 18.3574 18.1787C18.3572 18.435 18.1489 18.6426 17.8926 18.6426C17.6364 18.6424 17.4289 18.4349 17.4287 18.1787C17.4287 17.9224 17.6363 17.714 17.8926 17.7139ZM3.71387 8.64258C4.02931 8.64258 4.28491 8.89849 4.28516 9.21387V10.9287C4.2851 11.2443 4.02943 11.5 3.71387 11.5H3.11977C2.92631 11.5 2.74598 11.5979 2.64058 11.7601L2.3877 12.1494L2.07949 12.6221C1.94409 12.8297 2 13.1095 2 13.3574V14.2148C1.99983 14.4194 2.01716 14.6612 2.18406 14.7796L2.58301 15.0625L2.77275 15.1968C2.99141 15.3515 3.30342 15.2862 3.57129 15.2861H4.85742C5.17288 15.2863 5.42871 15.5419 5.42871 15.8574V17.1436C5.42845 17.4588 5.17273 17.7147 4.85742 17.7148H3.57129C3.25592 17.7148 3.00026 17.4589 3 17.1436V15.8574C3 15.7735 2.97252 15.6878 2.90403 15.6393L1.81798 14.8698C1.70741 14.7915 1.56422 14.7861 1.42871 14.7861H0.571289C0.255921 14.7861 0.000257748 14.5302 0 14.2148V13.3574C0 13.0419 0.255762 12.7862 0.571289 12.7861H1.42871C1.53778 12.7862 1.65194 12.7545 1.71144 12.6631L2.14746 11.9932L2.21288 11.8928C2.32298 11.7237 2.20171 11.5 2 11.5C1.68444 11.5 1.42876 11.2443 1.42871 10.9287V9.21387C1.42896 8.89849 1.68456 8.64258 2 8.64258H3.71387ZM1.28613 15.9287C1.60159 15.9289 1.85742 16.1845 1.85742 16.5V16.7861C1.85718 17.1014 1.60144 17.3573 1.28613 17.3574H1C0.684611 17.3574 0.428948 17.1015 0.428711 16.7861V16.5C0.428711 16.1844 0.684465 15.9288 1 15.9287H1.28613ZM7.21387 15.7861C7.52946 15.7861 7.78613 16.0418 7.78613 16.3574V16.6426C7.78613 16.9582 7.52946 17.2148 7.21387 17.2148H6.92871C6.61312 17.2148 6.35742 16.9582 6.35742 16.6426V16.3574C6.35742 16.0418 6.61312 15.7861 6.92871 15.7861H7.21387ZM17.2852 14.7861C17.6007 14.7861 17.8574 15.0418 17.8574 15.3574V16C17.8574 16.3156 17.6007 16.5713 17.2852 16.5713H16.6426C16.3271 16.5712 16.0713 16.3155 16.0713 16V15.3574C16.0713 15.0419 16.3271 14.7862 16.6426 14.7861H17.2852ZM23.0361 15C23.2923 15.0002 23.4998 15.2078 23.5 15.4639C23.5 15.7202 23.2924 15.9285 23.0361 15.9287C22.7797 15.9287 22.5713 15.7203 22.5713 15.4639C22.5715 15.2076 22.7799 15 23.0361 15ZM5.67871 12.3213C5.93488 12.3214 6.14234 12.529 6.14258 12.7852C6.14258 13.0415 5.93503 13.2499 5.67871 13.25C5.42229 13.25 5.21387 13.0416 5.21387 12.7852C5.2141 12.5289 5.42244 12.3213 5.67871 12.3213ZM0.463867 9.14258C0.720285 9.14258 0.928711 9.351 0.928711 9.60742C0.928505 9.86366 0.720158 10.0713 0.463867 10.0713C0.207768 10.0711 0.000205493 9.86353 0 9.60742C0 9.35114 0.207642 9.1428 0.463867 9.14258ZM6 8.14258C6.31559 8.14258 6.57129 8.39925 6.57129 8.71484V9C6.57129 9.31559 6.31559 9.57129 6 9.57129H5.71484C5.39925 9.57129 5.14258 9.31559 5.14258 9V8.71484C5.14258 8.39925 5.39925 8.14258 5.71484 8.14258H6ZM16.3926 8C16.6883 8 16.9285 8.23948 16.9287 8.53516C16.9287 8.83102 16.6884 9.07129 16.3926 9.07129C16.0968 9.07124 15.8574 8.83099 15.8574 8.53516C15.8576 8.23951 16.0969 8.00005 16.3926 8ZM23.0361 8.14258C23.2924 8.14277 23.5 8.35112 23.5 8.60742C23.4999 8.86368 23.2924 9.0711 23.0361 9.07129C22.7797 9.07129 22.5713 8.8638 22.5713 8.60742C22.5713 8.351 22.7797 8.14258 23.0361 8.14258ZM22 5.35742C22.3156 5.35742 22.5713 5.61312 22.5713 5.92871V7.07129C22.5713 7.38686 22.3156 7.64258 22 7.64258H20.8574C20.5418 7.64258 20.2862 7.38686 20.2861 7.07129C20.2861 6.83733 20.0307 6.69303 19.8303 6.8138L19.081 7.26543C19.0253 7.299 19 7.36367 19 7.42871V8.07129C19 8.38679 18.7442 8.64246 18.4287 8.64258H17.7852C17.4698 8.64232 17.2139 8.3867 17.2139 8.07129V7.42871C17.2139 7.11328 17.4698 6.85768 17.7852 6.85742H18.4287C18.4315 6.85742 18.4344 6.85745 18.4372 6.85749C18.7181 6.86177 19.0404 6.95577 19.281 6.81077L20.0494 6.34772C20.1963 6.2592 20.2861 6.10022 20.2861 5.92871C20.2861 5.61312 20.5418 5.35742 20.8574 5.35742H22ZM7.07129 1.42871C7.38688 1.42871 7.64258 1.68441 7.64258 2V2.85742C7.64234 3.17281 7.38673 3.42871 7.07129 3.42871H7.05985C7.03611 3.42871 7.02231 3.45875 7.0293 3.48145L7.64038 5.48194C7.66954 5.57738 7.75762 5.64258 7.85742 5.64258C8.17279 5.64266 8.42846 5.89854 8.42871 6.21387V7.07129C8.42871 7.38683 8.17294 7.64249 7.85742 7.64258H7C6.68446 7.64251 6.42871 7.38684 6.42871 7.07129V6.21387C6.42896 5.89853 6.68462 5.64264 7 5.64258C7.19427 5.64258 7.33324 5.45479 7.27646 5.26901L6.75586 3.56543C6.73948 3.51144 6.69821 3.42871 6.64179 3.42871H6.21387C5.89863 3.42846 5.64282 3.17266 5.64258 2.85742V2C5.64258 1.68456 5.89849 1.42896 6.21387 1.42871H7.07129ZM3.71387 4.78613C4.02946 4.78613 4.28516 5.04183 4.28516 5.35742V6.5C4.28516 6.81559 4.02946 7.07129 3.71387 7.07129H2.57129C2.2557 7.07129 2 6.81559 2 6.5V5.35742C2 5.04183 2.2557 4.78613 2.57129 4.78613H3.71387ZM13.75 6C14.0458 6.00012 14.2852 6.24034 14.2852 6.53613C14.2849 6.83173 14.0456 7.07117 13.75 7.07129C13.4543 7.07129 13.2141 6.83181 13.2139 6.53613C13.2139 6.24027 13.4541 6 13.75 6ZM13.7861 0C14.1016 0.000149742 14.3573 0.255854 14.3574 0.571289V2.28613C14.3573 2.41031 14.3164 2.52412 14.2486 2.6174C14.2245 2.65051 14.2321 2.69764 14.248 2.73535L14.9592 4.43173C14.9998 4.52849 15.109 4.57137 15.2139 4.57129H16.3574C16.5707 4.57138 16.8046 4.60556 16.9872 4.4954L17.6192 4.11417C17.7494 4.03562 17.7862 3.86692 17.7861 3.71484V3.07129C17.7863 2.75583 18.0419 2.5 18.3574 2.5H19C19.3155 2.50003 19.5711 2.75585 19.5713 3.07129V3.71484C19.5711 4.03022 19.3154 4.2861 19 4.28613H18.3574C18.1546 4.28613 17.9335 4.25905 17.7598 4.36382L17.0876 4.76937C16.9652 4.84321 16.9286 4.99965 16.9287 5.14258V6.28613C16.9286 6.60153 16.6728 6.85729 16.3574 6.85742H15.2139C14.8986 6.85717 14.6427 6.60145 14.6426 6.28613V5.14258C14.6426 5.12423 14.6435 5.10609 14.6452 5.08821C14.6666 4.86946 14.734 4.6357 14.649 4.43301L13.9834 2.8457C13.9783 2.83347 13.9675 2.82528 13.9549 2.82934C13.9015 2.84648 13.8452 2.85739 13.7861 2.85742H12.0713C11.756 2.85727 11.5002 2.60144 11.5 2.28613V0.571289C11.5001 0.255856 11.7559 0.000152124 12.0713 0H13.7861ZM11.2861 4.21387C11.6014 4.21408 11.8572 4.46985 11.8574 4.78516V5.92871C11.8572 6.244 11.6014 6.49979 11.2861 6.5H10.1426C9.82725 6.49984 9.57148 6.24404 9.57129 5.92871V4.78516C9.57147 4.46982 9.82724 4.21403 10.1426 4.21387H11.2861ZM4.17871 2.85742C4.43495 2.85754 4.64245 3.06506 4.64258 3.32129C4.64258 3.57763 4.43503 3.78601 4.17871 3.78613C3.92229 3.78613 3.71387 3.57771 3.71387 3.32129C3.714 3.06498 3.92237 2.85742 4.17871 2.85742ZM9.5 2C9.81558 2.00001 10.0713 2.2557 10.0713 2.57129V3.07129C10.0713 3.38687 9.81558 3.64257 9.5 3.64258H9C8.68441 3.64258 8.42871 3.38688 8.42871 3.07129V2.57129C8.42871 2.2557 8.68441 2 9 2H9.5ZM16.3926 0.857422C16.6884 0.857422 16.9287 1.09676 16.9287 1.39258C16.9287 1.68844 16.6884 1.92871 16.3926 1.92871C16.0968 1.92866 15.8574 1.68841 15.8574 1.39258C15.8575 1.09679 16.0968 0.857474 16.3926 0.857422ZM10.25 0C10.5458 4.37401e-05 10.7852 0.240293 10.7852 0.536133C10.7849 0.83178 10.5457 1.07125 10.25 1.07129C9.95427 1.07129 9.71409 0.831807 9.71387 0.536133C9.71387 0.240266 9.95413 0 10.25 0Z" fill="currentColor"/>
</svg>
